<svg xmlns="http://www.w3.org/2000/svg" aria-hidden="true" style="position:absolute;width:0;height:0;overflow:hidden">
  <defs>
    <symbol id="icon-cross" viewBox="0 0 24 32">
      <path fill="#d21818" d="m20.194 27.563 3.369-3.369a1.495 1.495 0 0 0 0-2.119L17.488 16l6.075-6.075a1.495 1.495 0 0 0 0-2.119l-3.369-3.369a1.495 1.495 0 0 0-2.119 0L12 10.512 5.925 4.437a1.495 1.495 0 0 0-2.119 0L.437 7.806a1.493 1.493 0 0 0 0 2.119L6.512 16 .437 22.075a1.493 1.493 0 0 0 0 2.119l3.369 3.369a1.495 1.495 0 0 0 2.119 0L12 21.488l6.075 6.075a1.506 1.506 0 0 0 2.119 0z" style="fill:var(--color1, #d21818)"/>
    </symbol>
    
    <symbol id="icon-leaf" viewBox="0 0 32 32">
      <path fill="#95d5a7" d="M31.992 14.861 32 0 17.141.008a14.468 14.468 0 0 0-9.934 4.246c-5.672 5.672-5.672 14.867 0 20.539s14.867 5.672 20.539 0a14.472 14.472 0 0 0 4.246-9.932z" style="fill:var(--color2, #95d5a7)"/>
      <path fill="#80cb93" d="M6.648 14.677c0-5.975 2.314-11.158 5.704-13.743a14.434 14.434 0 0 0-5.144 3.32c-5.672 5.672-5.672 14.867 0 20.539a14.48 14.48 0 0 0 4.434 3.033c-2.998-2.737-4.993-7.602-4.993-13.149z" style="fill:var(--color3, #80cb93)"/>
      <path fill="#aedeba" d="M28.664.002v23.784a14.468 14.468 0 0 0 3.328-8.924L32 .001l-3.336.002z" style="fill:var(--color4, #aedeba)"/>
      <path fill="#d3edd7" d="M23.928 16.791v-2.446h-4.543l4.254-4.254-1.73-1.73-4.254 4.254V8.072h-2.446v6.989l-2.743 2.743V8.072H10.02V20.25L0 30.27 1.73 32l10.02-10.02h12.178v-2.446h-9.732l2.743-2.743z" style="fill:var(--color5, #d3edd7)"/>
    </symbol>

    <symbol id="icon-tick" viewBox="0 0 32 32">
      <path fill="#068f06" d="m10.869 27.463-10.4-10.4a1.6 1.6 0 0 1 0-2.263l2.263-2.263a1.6 1.6 0 0 1 2.263 0l7.006 7.006L27.007 4.537a1.6 1.6 0 0 1 2.263 0L31.533 6.8a1.6 1.6 0 0 1 0 2.263l-18.4 18.4a1.6 1.6 0 0 1-2.263 0z" style="fill:var(--color6, #068f06)"/>
    </symbol>
  </defs>
</svg>